PathFileType	4	(X/Y/Z)	/Users/mathieubourgeois/Desktop/Analyse/Traitement/Sujet_01/Data/Transformed_Sujet_01_velo_80.trc
DataRate	CameraRate	NumFrames	NumMarkers	Units	OrigDataRate	OrigDataStartFrame	OrigNumFrames
120.000000	120.000000	5	35	mm	120.000000	1467	1957
Frame#	Time	RFHD			LFHD			RBHD			LBHD			RSHO			LSHO			CLAV			STRN			T10			RBWT			LBWT			RFWT			LFWT			RRAD			RWRA			RWRB			RCAR			RHUM			LHUM			LRAD			LWRA			LWRB			LCAR			RKNI			RKNE			LKNI			LKNE			RANE			RANI			RTOE			RHEE			LTOE			LANI			LANE			LHEE			
		X1	Y1	Z1	X2	Y2	Z2	X3	Y3	Z3	X4	Y4	Z4	X5	Y5	Z5	X6	Y6	Z6	X7	Y7	Z7	X8	Y8	Z8	X9	Y9	Z9	X10	Y10	Z10	X11	Y11	Z11	X12	Y12	Z12	X13	Y13	Z13	X14	Y14	Z14	X15	Y15	Z15	X16	Y16	Z16	X17	Y17	Z17	X18	Y18	Z18	X19	Y19	Z19	X20	Y20	Z20	X21	Y21	Z21	X22	Y22	Z22	X23	Y23	Z23	X24	Y24	Z24	X25	Y25	Z25	X26	Y26	Z26	X27	Y27	Z27	X28	Y28	Z28	X29	Y29	Z29	X30	Y30	Z30	X31	Y31	Z31	X32	Y32	Z32	X33	Y33	Z33	X34	Y34	Z34	X35	Y35	Z35	

1468	12.225	182.1243896484375	1440.480102539062	320.1629028320311	186.7556610107422	1439.820556640625	195.3764495849609	65.63795471191402	1538.303833007812	321.5769042968749	64.62249755859372	1541.56640625	190.1661834716796	-3.775374412536664	1387.616821289062	351.7722167968749	-4.87514257431032	1373.484741210938	135.6663208007812	15.61379814147946	1309.42724609375	260.1699829101562	-40.47565841674808	1221.0078125	260.0863342285156	-219.4944915771485	1382.817993164062	270.9011840820312	-408.7819213867188	1106.30322265625	344.2602539062499	-417.127685546875	1104.055419921875	223.8859863281249	-232.9180755615235	1067.248901367188	386.4542846679686	-239.1317901611328	1080.4775390625	162.6050262451171	140.1201934814453	1173.788940429688	490.2548522949218	300.1392822265624	1022.490173339844	410.786376953125	321.4134216308593	1042.838134765625	470.8468017578125	401.5428466796874	1034.11767578125	406.1102600097656	91.54479980468744	1134.442626953125	464.4022827148437	102.254638671875	1132.29052734375	83.99390411376947	153.5166473388672	1165.636840820312	60.43388366699214	318.0896301269531	1037.1552734375	164.2837371826172	343.8422546386719	1049.872802734375	101.4170761108398	402.5121459960938	1044.469848632812	174.5017395019531	-67.45199584960942	665.0689086914062	343.6863708496093	-78.28286743164068	699.2388916015625	457.8849182128906	17.59124946594236	843.1784057617188	195.3399505615234	-9.226707458496103	841.4295043945312	67.69932556152338	-73.01065063476568	355.0929565429688	443.3913879394531	-44.27939987182621	358.5932006835938	367.4505004882812	104.0948867797851	267.2216186523438	432.5487060546875	-133.4892120361329	321.8209228515625	396.8554992675781	-129.0982513427735	465.6199035644531	135.0281982421874	-239.0832977294922	611.185546875	176.8412170410156	-260.6279907226562	606.5217895507812	98.46733856201165	-343.3352966308594	599.3754272460938	146.2871551513671	
1469	12.23333333333333	182.6278076171875	1440.686279296875	318.8909301757811	187.100341796875	1439.762939453125	194.0366668701171	65.66567993164058	1538.416015625	320.4506225585936	65.07692718505857	1541.604736328125	188.7711944580077	-3.013214349746747	1387.972778320312	350.8397827148437	-4.708924770355241	1373.379028320312	134.710235595703	16.82699012756344	1309.690307617188	258.9837341308593	-39.5117111206055	1221.010375976562	259.3724670410156	-218.8971710205078	1382.875	270.6784057617187	-408.0681457519532	1106.632690429688	344.7896728515624	-416.620361328125	1104.653564453125	224.4600830078124	-232.3619842529297	1066.726684570312	386.5543518066405	-238.930404663086	1080.849853515625	162.9160003662109	140.4385833740234	1174.653686523438	490.1461486816406	300.2356567382812	1022.541870117188	410.5886535644531	321.5322875976562	1042.989990234375	470.6512451171875	401.5753479003906	1034.093383789062	405.9156188964844	91.96450805664057	1135.062744140625	464.3536071777343	102.1689224243164	1132.126953125	83.25375366210932	153.4187774658203	1165.29736328125	59.67700195312495	318.0093688964844	1037.203979492188	163.9739227294922	343.8666381835938	1049.763916015625	101.0858612060547	402.4829711914062	1044.473510742188	174.2514495849609	-73.57642364501957	658.230712890625	341.8861083984374	-85.09561920166021	692.8978271484375	456.2239379882812	22.18772315979001	851.43798828125	195.2502899169921	-5.540219306945809	851.4257202148438	67.10429382324213	-78.63124084472662	348.5847473144531	442.9479370117188	-49.21554183959965	350.7337036132812	366.9394226074219	97.1781387329101	256.4950256347656	432.2027282714844	-139.2501983642579	316.5943603515625	396.4400024414062	-122.4653244018555	476.2354736328125	135.0357360839843	-233.6206512451172	619.99609375	177.0624999999999	-255.1774597167969	614.6785278320312	98.75763702392571	-337.9754333496094	606.1038818359375	146.6160125732421	
1470	12.24166666666667	183.0575408935547	1440.836547851562	317.5490112304686	187.3727111816406	1439.608520507812	192.7040863037109	66.17366027832027	1538.691772460938	319.070831298828	65.44207000732419	1541.551391601562	187.3759307861327	-2.380884647369427	1388.321044921875	349.8969116210937	-4.622633457183854	1373.24951171875	133.7597198486327	17.96292114257809	1309.928344726562	257.9559020996093	-38.59129714965823	1221.01904296875	258.7507629394531	-218.3393096923828	1382.861694335938	270.4332580566406	-407.4738464355469	1106.86767578125	345.1340332031249	-416.1533203125	1105.23095703125	224.9254760742186	-231.9210510253907	1066.22509765625	386.7475891113281	-238.8108825683594	1081.163940429688	163.2687835693359	140.915054321289	1175.24267578125	489.8710021972656	300.2392883300781	1022.632263183594	410.4606018066406	321.6322326660156	1043.136840820312	470.4745788574219	401.5585327148437	1034.082885742188	405.6864929199219	92.28405761718744	1135.694091796875	464.3655090332031	102.1042022705078	1132.035888671875	83.4348526000976	153.2288970947266	1164.900146484375	59.05819320678706	317.8782043457031	1037.181274414062	163.6859741210937	343.8173217773438	1049.634399414062	100.7754669189453	402.3859252929688	1044.5322265625	173.9987487792969	-80.53899383544926	652.0811767578125	340.2318725585937	-91.75437927246099	687.0706176757812	454.6632690429687	25.09092330932615	861.8023681640625	195.2832794189453	-1.532822370529183	860.545166015625	66.24780273437494	-84.79677581787115	342.6759643554688	442.4133911132812	-55.29865264892582	344.2083740234375	366.5740356445312	89.27069091796869	246.4073486328125	432.0770568847656	-145.5525207519532	312.0055541992188	395.95849609375	-113.3515014648438	486.2196960449219	135.614273071289	-227.5676422119141	627.646728515625	177.5147094726562	-249.5255584716797	622.0176391601562	99.15159606933587	-332.2896423339844	611.7120971679688	147.001724243164	
1471	12.25	183.4715728759765	1440.909301757812	316.1722412109374	187.5614318847656	1439.354370117188	191.3607025146484	67.27419281005855	1539.103393554688	317.4053649902343	65.7351150512695	1541.471313476562	185.9682464599609	-1.837500929832501	1388.5283203125	348.9916381835937	-4.613303661346452	1373.0751953125	132.822280883789	19.04497528076169	1310.117919921875	257.0410156249999	-37.780632019043	1220.9794921875	258.2205505371093	-217.9302215576172	1382.80810546875	270.2134399414062	-407.0578308105469	1107.049072265625	345.3786010742186	-415.7839660644531	1105.744873046875	225.1664886474608	-231.6617736816407	1065.657836914062	386.9578552246093	-238.7410888671875	1081.415161132812	163.5791931152343	141.2754669189453	1175.82177734375	489.6240539550781	300.2252197265624	1022.748291015625	410.3509826660156	321.7031249999999	1043.277587890625	470.3271179199219	401.5617370605468	1034.088500976562	405.4977416992188	92.53662872314447	1136.31689453125	464.3585205078124	101.8289947509765	1131.85888671875	82.74729156494135	152.9820098876953	1164.472412109375	58.38822555541987	317.7551574707031	1037.142700195312	163.4836883544922	343.7106628417969	1049.520751953125	100.5487289428711	402.2395935058594	1044.612426757812	173.8101501464844	-87.40071868896489	646.5486450195312	338.5273437499999	-98.25231933593756	681.844482421875	453.1908264160156	28.41445159912107	871.669189453125	194.6961059570312	2.168251991271965	869.3421630859375	65.36838531494135	-91.41471862792974	337.38330078125	441.7795715332031	-61.47557067871098	338.15380859375	366.1791381835938	80.89635467529291	237.0069427490235	431.8102416992188	-152.3430175781251	308.0386657714844	395.4176025390625	-104.5254516601563	495.8539123535156	136.0796966552734	-221.8941497802735	635.1661987304688	177.9324340820312	-243.5861206054688	628.4249877929688	99.64521789550774	-326.2929992675781	616.240234375	147.5325317382812	
1472	12.25833333333333	183.7883148193359	1440.884399414062	314.8216247558593	187.6323699951172	1439.006713867188	190.0218200683593	67.19349670410152	1539.072509765625	316.2442626953124	65.89680480957028	1541.2138671875	184.5882110595702	-1.398173213005109	1388.729858398438	348.2082214355468	-4.690310478210465	1372.759643554688	131.8845672607421	20.00220298767087	1310.310424804688	256.2848510742187	-37.15306472778323	1220.910522460938	257.8082275390624	-217.5904693603516	1382.687622070312	270.0137939453124	-406.7612609863282	1107.128295898438	345.5482177734374	-415.5276184082031	1106.17333984375	225.3359527587889	-231.4616394042969	1065.149291992188	387.2178039550781	-238.7526092529297	1081.58203125	163.8760681152343	141.6362152099609	1176.348754882812	489.3942260742187	300.2210998535156	1022.803955078125	410.2698059082031	321.7616882324218	1043.417602539062	470.1926879882812	401.5101013183593	1034.073974609375	405.3279113769531	92.72255706787104	1136.838134765625	464.4628906249999	101.3857650756836	1131.69921875	82.14054870605463	152.6737670898438	1163.979858398438	57.84728622436518	317.6167602539062	1037.07421875	163.3032684326172	343.5972900390625	1049.411376953125	100.3895645141601	402.071533203125	1044.722412109375	173.6549377441406	-94.13942718505864	641.6090698242188	336.7841186523437	-104.3981475830079	677.242431640625	451.7243957519531	32.3457336425781	880.2105712890625	191.5701293945312	5.582377433776847	877.8529663085938	64.29502105712885	-98.53483581542974	332.7257080078125	440.9911499023438	-68.32286834716801	332.7699890136719	365.59912109375	71.84886932373041	228.2710571289063	431.5039978027344	-159.6509246826172	304.6082763671875	394.7409057617188	-95.27047729492189	504.909912109375	136.5555267333984	-216.9727630615235	641.5758666992188	179.4774169921874	-237.5303802490234	633.9690551757812	100.3050918579101	-320.1278381347656	619.6371459960938	148.1932830810546	
